<svg width="18" height="18" viewBox="0 0 18 18" fill="none" xmlns="http://www.w3.org/2000/svg">
<g id="211694_bell_icon 1">
<g id="Group">
<path id="Vector" d="M13.4191 7.9418C13.4191 4.51055 11.5734 3.34336 9.84727 3.0832C9.84727 3.06562 9.85078 3.04805 9.85078 3.02695C9.85078 2.59453 9.46758 2.25 9 2.25C8.53242 2.25 8.16328 2.59453 8.16328 3.02695C8.16328 3.04805 8.16328 3.06562 8.1668 3.0832C6.43711 3.34687 4.58086 4.51758 4.58086 7.94883C4.58086 11.9496 3.58594 12.3785 2.25 13.5035H15.75C14.4211 12.375 13.4191 11.9426 13.4191 7.9418Z" fill="#FFCA42"/>
<path id="Vector_2" d="M9.00703 15.75C9.94922 15.75 10.7227 15.0504 10.8246 14.2383H7.18945C7.28789 15.0504 8.06484 15.75 9.00703 15.75Z" fill="#FFCA42"/>
</g>
</g>
</svg>
