<svg width="47" height="44" viewBox="0 0 47 44" fill="none" xmlns="http://www.w3.org/2000/svg">
<g id="Group 19">
<rect id="Rectangle 356" x="18.6269" y="33.7038" width="13.2692" height="3.08462" fill="#53A5DF" stroke="#53A5DF" stroke-width="0.5"/>
<rect id="Rectangle 357" x="42.8885" y="33.7038" width="3.05385" height="3.08462" fill="#53A5DF" stroke="#53A5DF" stroke-width="0.5"/>
<path id="Ellipse 8" d="M13.1308 43.2499C16.4452 43.2499 19.1269 40.5315 19.1269 37.1845C19.1269 33.8376 16.4452 31.1192 13.1308 31.1192C9.81637 31.1192 7.13461 33.8376 7.13461 37.1845C7.13461 40.5315 9.81637 43.2499 13.1308 43.2499Z" fill="#53A5DF" stroke="#53A5DF" stroke-width="0.5"/>
<rect id="Rectangle 355" x="11.2154" y="1.64608" width="2.55385" height="2.58462" fill="#FD7070"/>
<g id="Rectangle 353">
<mask id="path-5-outside-1_8_2976" maskUnits="userSpaceOnUse" x="10.7692" y="4.2307" width="4" height="27" fill="black">
<rect fill="white" x="10.7692" y="4.2307" width="4" height="27"/>
<path d="M13.7692 4.2307L13.7692 30.0769L12.4923 30.0769L12.4923 4.2307L13.7692 4.2307Z"/>
</mask>
<path d="M13.7692 4.2307L13.7692 30.0769L12.4923 30.0769L12.4923 4.2307L13.7692 4.2307Z" fill="#53A5DF"/>
<path d="M13.7692 30.0769L13.7692 31.0769L14.7692 31.0769L14.7692 30.0769L13.7692 30.0769ZM12.4923 30.0769L11.4923 30.0769L11.4923 31.0769L12.4923 31.0769L12.4923 30.0769ZM12.7692 4.2307L12.7692 30.0769L14.7692 30.0769L14.7692 4.2307L12.7692 4.2307ZM13.7692 29.0769L12.4923 29.0769L12.4923 31.0769L13.7692 31.0769L13.7692 29.0769ZM13.4923 30.0769L13.4923 4.2307L11.4923 4.2307L11.4923 30.0769L13.4923 30.0769Z" fill="#53A5DF" mask="url(#path-5-outside-1_8_2976)"/>
</g>
<g id="Rectangle 354">
<mask id="path-7-outside-2_8_2976" maskUnits="userSpaceOnUse" x="-0.507691" y="-0.0616074" width="13" height="4" fill="black">
<rect fill="white" x="-0.507691" y="-0.0616074" width="13" height="4"/>
<path d="M12.4923 2.93839L1 2.93839L1 1.64608L12.4923 1.64608L12.4923 2.93839Z"/>
</mask>
<path d="M12.4923 2.93839L1 2.93839L1 1.64608L12.4923 1.64608L12.4923 2.93839Z" fill="#FD7070"/>
<path d="M1 2.93839L1.90735e-06 2.93839L1.99373e-06 3.93839L1 3.93839L1 2.93839ZM1 1.64608L1 0.646085L1.70933e-06 0.646085L1.79572e-06 1.64608L1 1.64608ZM12.4923 1.93839L1 1.93839L1 3.93839L12.4923 3.93839L12.4923 1.93839ZM2 2.93839L2 1.64608L1.79572e-06 1.64608L1.90735e-06 2.93839L2 2.93839ZM1 2.64608L12.4923 2.64608L12.4923 0.646084L1 0.646085L1 2.64608Z" fill="#FD7070" mask="url(#path-7-outside-2_8_2976)"/>
</g>
<path id="Vector 13" d="M10.986 1.16641C12.1621 1.2733 14.5143 1.48708 14.2576 4.3114" stroke="#FD7070"/>
<path id="Ellipse 7" d="M16.0731 37.1846C16.0731 38.8336 14.7529 40.1653 13.1308 40.1653C11.5086 40.1653 10.1885 38.8336 10.1885 37.1846C10.1885 35.5355 11.5086 34.2038 13.1308 34.2038C14.7529 34.2038 16.0731 35.5355 16.0731 37.1846Z" fill="#FD7070" stroke="#FD7070" stroke-width="0.5"/>
<rect id="Rectangle 358" x="19.1269" y="19.9884" width="12.2692" height="13.7154" fill="#A3D4F7" stroke="#A3D4F7" stroke-width="0.5"/>
<rect id="Rectangle 360" x="31.8962" y="25.1576" width="12.2692" height="8.54615" fill="#A3D4F7" stroke="#A3D4F7" stroke-width="0.5"/>
<rect id="Rectangle 361" x="31.8962" y="16.1115" width="12.2692" height="8.54615" fill="#A3D4F7" stroke="#A3D4F7" stroke-width="0.5"/>
<rect id="Rectangle 359" x="22.8327" y="19.8634" width="3.58077" height="4.91923" fill="#FD7070" stroke="#FD7070" stroke-width="0.25"/>
<rect id="Rectangle 362" x="35.6019" y="15.9865" width="3.58077" height="4.91923" fill="#FD7070" stroke="#FD7070" stroke-width="0.25"/>
<rect id="Rectangle 363" x="35.6019" y="25.0326" width="3.58077" height="4.91923" fill="#FD7070" stroke="#FD7070" stroke-width="0.25"/>
<path id="Ellipse 9" d="M37.3923 43.2499C40.7067 43.2499 43.3885 40.5315 43.3885 37.1845C43.3885 33.8376 40.7067 31.1192 37.3923 31.1192C34.0779 31.1192 31.3962 33.8376 31.3962 37.1845C31.3962 40.5315 34.0779 43.2499 37.3923 43.2499Z" fill="#53A5DF" stroke="#53A5DF" stroke-width="0.5"/>
<path id="Ellipse 10" d="M40.3346 37.1846C40.3346 38.8336 39.0145 40.1653 37.3923 40.1653C35.7701 40.1653 34.45 38.8336 34.45 37.1846C34.45 35.5355 35.7701 34.2038 37.3923 34.2038C39.0145 34.2038 40.3346 35.5355 40.3346 37.1846Z" fill="#FD7070" stroke="#FD7070" stroke-width="0.5"/>
<rect id="Rectangle 364" x="1.00001" y="1.64608" width="7.66154" height="1.29231" fill="#FD7070"/>
</g>
</svg>
