<svg width="41" height="49" viewBox="0 0 41 49" fill="none" xmlns="http://www.w3.org/2000/svg">
<g id="Carpet">
<path id="Vector" d="M0 40.4619V45.8329H33.6914C36.9528 45.8329 39.6749 43.5234 40.2949 40.4619C40.3757 40.0323 40.4297 36.8901 40.4297 36.4336C40.4297 34.5806 39.6749 32.8888 38.4622 31.6802C37.2492 30.4719 35.5512 29.7198 33.6914 29.7198C31.8316 29.7198 30.1336 30.4719 28.9206 31.6802C27.7079 32.8888 26.9531 34.5806 26.9531 36.4336C26.9531 36.8901 27.0071 37.3468 27.0879 37.7764L14.8242 38.9849L0 40.4619Z" fill="#FF9999"/>
<path id="Vector_2" d="M14.8242 38.9848L1.52588e-05 40.4618V45.8329H14.8242V38.9848Z" fill="#FF9999"/>
<path id="Vector_3" d="M0 5.37109V10.7421L11.0239 13.4277L14.8242 12.8906L29.6484 10.7421V5.37109H0Z" fill="#FF9999"/>
<path id="Vector_4" d="M1.52588e-05 5.37109V10.7421L11.0239 13.4277L14.8242 12.8906V5.37109H1.52588e-05Z" fill="#FF9999"/>
<path id="Vector_5" d="M1.52588e-05 10.7421H35.0391V40.4619H1.52588e-05V10.7421Z" fill="#A3D4F7"/>
<path id="Vector_6" d="M1.52588e-05 10.7421H14.8242V40.4619H1.52588e-05V10.7421Z" fill="#A3D4F7"/>
<rect id="Rectangle 25" x="4.59998" y="7.05964" width="3.45" height="41.4" fill="white"/>
<rect id="Rectangle 26" x="11.5" y="7.05964" width="3.45" height="41.4" fill="white"/>
<path id="Vector_7" d="M28.9206 1.96034C30.1336 0.752033 31.8316 0 33.6914 0C37.4109 0 40.4297 3.00778 40.4297 6.71378V14.7703H26.9531V6.71378C26.9531 4.86078 27.7079 3.16891 28.9206 1.96034Z" fill="#FD7070"/>
<path id="Vector_8" d="M33.6914 5.37109C37.4109 5.37109 40.4297 8.37887 40.4297 12.0849V29.8541H26.9531V12.0849C26.9531 8.37887 29.9719 5.37109 33.6914 5.37109Z" fill="#53A5DF"/>
<path id="Vector_9" d="M26.9531 29.854V39.119C26.9531 37.266 27.7079 35.5741 28.9206 34.3656C30.1336 33.1573 31.8316 32.4052 33.6914 32.4052C35.5512 32.4052 37.2492 33.1573 38.4622 34.3656C39.6749 35.5741 40.4297 37.266 40.4297 39.119V29.854C38.6509 28.0547 36.225 27.0342 33.6914 27.0342C31.1578 27.0342 28.7319 28.0547 26.9531 29.854Z" fill="#FD7070"/>
</g>
</svg>
