<svg width="35" height="46" viewBox="0 0 35 46" fill="none" xmlns="http://www.w3.org/2000/svg">
<g id="Clothes">
<path id="Rectangle 352" d="M0 11.3294C0 8.0157 2.68629 5.32941 6 5.32941H28.2326C31.5463 5.32941 34.2326 8.0157 34.2326 11.3294V33.4377C34.2326 36.7514 31.5463 39.4377 28.2326 39.4377H6C2.68629 39.4377 0 36.7514 0 33.4377V11.3294Z" fill="#A3D4F7"/>
<path id="Vector 10" d="M12.7299 16.6799L12.1615 14.6976C11.9258 13.8757 12.2386 12.9949 12.9398 12.5058L15.9098 10.4344C16.6275 9.93386 17.5873 9.95799 18.279 10.494L20.8594 12.4937C21.5061 12.9948 21.7823 13.8394 21.5568 14.6258L20.9753 16.6538C20.8995 16.9179 20.879 17.1947 20.915 17.467L23.4278 36.4948C23.4964 37.0146 23.3582 37.5406 23.0429 37.9594L18.7142 43.7101C17.9141 44.773 16.3185 44.773 15.5184 43.7101L11.1715 37.9353C10.867 37.5308 10.7273 37.0259 10.7804 36.5224L12.7963 17.4413C12.8233 17.1856 12.8008 16.9271 12.7299 16.6799Z" fill="#FD7070"/>
<path id="Vector 11" d="M13.907 19.5759H19.7907" stroke="white" stroke-linecap="round" stroke-linejoin="round"/>
<path id="Vector 9" d="M15.6896 11.636L10.5193 14.2118C9.68469 14.6275 8.67352 14.4114 8.0818 13.6909L4.99567 9.93263C4.55093 9.39104 4.4221 8.65617 4.6561 7.99559L7.01647 1.3322C7.29932 0.533694 8.05456 0 8.90168 0H24.3369C25.1464 0 25.8761 0.487984 26.1853 1.23613L28.9335 7.88625C29.2296 8.60262 29.0851 9.42554 28.5626 9.99815L25.0875 13.8069C24.4852 14.467 23.5181 14.6475 22.7182 14.249L17.4732 11.636C16.9116 11.3562 16.2512 11.3562 15.6896 11.636Z" fill="#53A5DF"/>
<path id="Vector 12" d="M9.62791 4.59914L16.8389 11.0177L23.5349 4.59914" stroke="#A3D4F7" stroke-width="1.5" stroke-linecap="round" stroke-linejoin="round"/>
</g>
</svg>
