<svg width="19" height="20" viewBox="0 0 19 20" fill="none" xmlns="http://www.w3.org/2000/svg">
<g id="Group 1525">
<g id="Vector">
<path d="M4.86757 14.0485C4.58423 14.0485 4.35724 13.8131 4.35724 13.5229C4.35724 13.2327 4.58736 12.9973 4.86757 12.9973H8.23169C8.51504 12.9973 8.74202 13.2327 8.74202 13.5229C8.74202 13.8131 8.51347 14.0485 8.23169 14.0485H4.86757ZM10.4765 12.5249C10.3262 12.5249 10.1979 12.3927 10.1979 12.2314C10.1979 12.0766 10.3262 11.9444 10.4765 11.9444H11.2045H11.2326C11.4894 11.9509 11.7179 12.0025 11.9105 12.1282C12.1249 12.2685 12.2815 12.4813 12.3676 12.7974C12.3676 12.8038 12.3676 12.8119 12.3754 12.8199L12.4474 13.1134H18.6919C18.8485 13.1134 18.9706 13.2456 18.9706 13.4004C18.9706 13.4237 18.9655 13.447 18.9603 13.4711C18.959 13.4771 18.9577 13.483 18.9565 13.489L18.2286 16.5105C18.2004 16.6427 18.0861 16.7314 17.9577 16.7314H13.3898C13.49 17.1135 13.5902 17.3199 13.7248 17.415C13.8892 17.5247 14.1741 17.5327 14.6531 17.5247H14.6594H17.8857C18.0423 17.5247 18.1644 17.6569 18.1644 17.8117C18.1644 17.9729 18.036 18.0987 17.8857 18.0987H14.6578C14.0645 18.1051 13.7013 18.0906 13.4086 17.8923C13.108 17.6859 12.9515 17.3344 12.7949 16.6943L11.8385 12.965C11.8385 12.9612 11.8385 12.9592 11.8378 12.9574C11.837 12.9555 11.8355 12.9539 11.8322 12.9505C11.7899 12.7893 11.7179 12.678 11.6177 12.62C11.5175 12.5539 11.3829 12.5249 11.2248 12.5249H11.2029H10.4765ZM17.0498 18.4356C17.4286 18.4356 17.7355 18.7516 17.7355 19.1418C17.7355 19.532 17.4286 19.848 17.0498 19.848C16.671 19.848 16.3641 19.532 16.3641 19.1418C16.3641 18.7516 16.671 18.4356 17.0498 18.4356ZM14.0442 18.4356C14.423 18.4356 14.7298 18.7516 14.7298 19.1418C14.7298 19.532 14.423 19.848 14.0442 19.848C13.6653 19.848 13.3585 19.532 13.3585 19.1418C13.3585 18.7516 13.6669 18.4356 14.0442 18.4356ZM4.86757 5.44841C4.58423 5.44841 4.35724 5.2114 4.35724 4.92279C4.35724 4.63257 4.58736 4.39717 4.86757 4.39717H12.7762C13.0595 4.39717 13.2865 4.63257 13.2865 4.92279C13.2865 5.21301 13.0579 5.44841 12.7762 5.44841H4.86757ZM2.09675 0.0342407H15.5016C15.8288 0.0342407 16.1262 0.171288 16.3391 0.390563C16.552 0.609838 16.685 0.916179 16.685 1.25315V10.9238H15.6675V1.25799C15.6675 1.21123 15.6487 1.1677 15.619 1.13545C15.5877 1.10482 15.5454 1.08547 15.5 1.08547H2.09675C2.05135 1.08547 2.00908 1.10482 1.97777 1.13545C1.94647 1.16609 1.93081 1.21123 1.93081 1.25799V17.1667C1.93081 17.2135 1.9496 17.257 1.97934 17.2893C2.00908 17.3215 2.05135 17.3393 2.09831 17.3393H10.716C10.8115 17.7246 10.9195 18.0616 11.0651 18.3824H2.09675C1.76957 18.3824 1.47214 18.2454 1.25924 18.0261C1.04477 17.8084 0.911713 17.5021 0.911713 17.1651V1.25477C0.911713 0.917791 1.04477 0.609838 1.25767 0.390563C1.47057 0.171288 1.76957 0.0342407 2.09675 0.0342407ZM4.86757 9.74846C4.58423 9.74846 4.35724 9.51306 4.35724 9.22284C4.35724 8.93263 4.58736 8.69723 4.86757 8.69723H12.7762C13.0595 8.69723 13.2865 8.93263 13.2865 9.22284C13.2865 9.51306 13.0579 9.74846 12.7762 9.74846H4.86757Z" fill="white"/>
<path d="M4.86757 14.0485C4.58423 14.0485 4.35724 13.8131 4.35724 13.5229C4.35724 13.2327 4.58736 12.9973 4.86757 12.9973H8.23169C8.51504 12.9973 8.74202 13.2327 8.74202 13.5229C8.74202 13.8131 8.51347 14.0485 8.23169 14.0485H4.86757ZM10.4765 12.5249C10.3262 12.5249 10.1979 12.3927 10.1979 12.2314C10.1979 12.0766 10.3262 11.9444 10.4765 11.9444H11.2045H11.2326C11.4894 11.9509 11.7179 12.0025 11.9105 12.1282C12.1249 12.2685 12.2815 12.4813 12.3676 12.7974C12.3676 12.8038 12.3676 12.8119 12.3754 12.8199L12.4474 13.1134H18.6919C18.8485 13.1134 18.9706 13.2456 18.9706 13.4004C18.9706 13.4237 18.9655 13.447 18.9603 13.4711C18.959 13.4771 18.9577 13.483 18.9565 13.489L18.2286 16.5105C18.2004 16.6427 18.0861 16.7314 17.9577 16.7314H13.3898C13.49 17.1135 13.5902 17.3199 13.7248 17.415C13.8892 17.5247 14.1741 17.5327 14.6531 17.5247H14.6594H17.8857C18.0423 17.5247 18.1644 17.6569 18.1644 17.8117C18.1644 17.9729 18.036 18.0987 17.8857 18.0987H14.6578C14.0645 18.1051 13.7013 18.0906 13.4086 17.8923C13.108 17.6859 12.9515 17.3344 12.7949 16.6943L11.8385 12.965C11.8385 12.9612 11.8385 12.9592 11.8378 12.9574C11.837 12.9555 11.8355 12.9539 11.8322 12.9505C11.7899 12.7893 11.7179 12.678 11.6177 12.62C11.5175 12.5539 11.3829 12.5249 11.2248 12.5249H11.2029H10.4765ZM17.0498 18.4356C17.4286 18.4356 17.7355 18.7516 17.7355 19.1418C17.7355 19.532 17.4286 19.848 17.0498 19.848C16.671 19.848 16.3641 19.532 16.3641 19.1418C16.3641 18.7516 16.671 18.4356 17.0498 18.4356ZM14.0442 18.4356C14.423 18.4356 14.7298 18.7516 14.7298 19.1418C14.7298 19.532 14.423 19.848 14.0442 19.848C13.6653 19.848 13.3585 19.532 13.3585 19.1418C13.3585 18.7516 13.6669 18.4356 14.0442 18.4356ZM4.86757 5.44841C4.58423 5.44841 4.35724 5.2114 4.35724 4.92279C4.35724 4.63257 4.58736 4.39717 4.86757 4.39717H12.7762C13.0595 4.39717 13.2865 4.63257 13.2865 4.92279C13.2865 5.21301 13.0579 5.44841 12.7762 5.44841H4.86757ZM2.09675 0.0342407H15.5016C15.8288 0.0342407 16.1262 0.171288 16.3391 0.390563C16.552 0.609838 16.685 0.916179 16.685 1.25315V10.9238H15.6675V1.25799C15.6675 1.21123 15.6487 1.1677 15.619 1.13545C15.5877 1.10482 15.5454 1.08547 15.5 1.08547H2.09675C2.05135 1.08547 2.00908 1.10482 1.97777 1.13545C1.94647 1.16609 1.93081 1.21123 1.93081 1.25799V17.1667C1.93081 17.2135 1.9496 17.257 1.97934 17.2893C2.00908 17.3215 2.05135 17.3393 2.09831 17.3393H10.716C10.8115 17.7246 10.9195 18.0616 11.0651 18.3824H2.09675C1.76957 18.3824 1.47214 18.2454 1.25924 18.0261C1.04477 17.8084 0.911713 17.5021 0.911713 17.1651V1.25477C0.911713 0.917791 1.04477 0.609838 1.25767 0.390563C1.47057 0.171288 1.76957 0.0342407 2.09675 0.0342407ZM4.86757 9.74846C4.58423 9.74846 4.35724 9.51306 4.35724 9.22284C4.35724 8.93263 4.58736 8.69723 4.86757 8.69723H12.7762C13.0595 8.69723 13.2865 8.93263 13.2865 9.22284C13.2865 9.51306 13.0579 9.74846 12.7762 9.74846H4.86757Z" stroke="white"/>
</g>
</g>
</svg>
