<svg width="52" height="30" viewBox="0 0 52 30" fill="none" xmlns="http://www.w3.org/2000/svg">
<g id="Iron">
<rect id="Rectangle 347" x="35.1256" y="13.9083" width="7.23177" height="7.23177" rx="1" fill="#53A5DF"/>
<path id="Subtract" fill-rule="evenodd" clip-rule="evenodd" d="M3.38263 21.6048L51 21.6048C51.5523 21.6048 52 21.1571 52 20.6048V0.997708C52 0.441741 51.5356 -0.00760844 50.9797 9.76564e-05C25.6286 0.351515 14.5123 4.83891 2.6001 20.0142C2.09072 20.6631 2.55766 21.6048 3.38263 21.6048ZM25.0779 15.0853L46.1788 15.0853C46.7311 15.0853 47.1788 14.6376 47.1788 14.0853V5.80118C47.1788 5.24521 46.7227 4.79542 46.1668 4.80599C34.9271 5.01962 29.6662 7.03864 24.3148 13.5086C23.789 14.1443 24.253 15.0853 25.0779 15.0853Z" fill="#A3D4F7"/>
<path id="Subtract_2" fill-rule="evenodd" clip-rule="evenodd" d="M2.32048 22.9773L51.1056 22.9773C51.5975 22.9773 51.9964 23.41 51.9965 23.9435V27.8722L0.172327 27.8722L0.172327 28.8722L51.9355 28.8722C51.8057 29.2317 51.4831 29.4863 51.1057 29.4863L0.89139 29.4863C0.28165 29.4863 -0.147828 28.8366 0.047768 28.2101L1.47686 23.6335C1.59933 23.2413 1.93873 22.9773 2.32048 22.9773Z" fill="#FD7070"/>
</g>
</svg>
