<svg width="42" height="46" viewBox="0 0 42 46" fill="none" xmlns="http://www.w3.org/2000/svg">
<g id="Washing Machine ">
<g id="Mask Group">
<g id="Group 5">
<path id="Rectangle 6" d="M0 8C0 3.58172 3.58172 0 8 0H34C38.4183 0 42 3.58172 42 8V34C42 40.6274 36.6274 46 30 46H12C5.37258 46 0 40.6274 0 34V8Z" fill="#A3D4F7"/>
<g id="Mask Group_2">
<rect id="Rectangle 7" width="42" height="46" rx="21" fill="#A3D4F7"/>
<path id="Rectangle 8" d="M0 8C0 3.58172 3.58172 0 8 0H34C38.4183 0 42 3.58172 42 8V8.21428C42 8.21428 27.2915 12.1053 20.83 12.1053C14.3684 12.1053 0 8.21428 0 8.21428V8Z" fill="#FD7070"/>
<path id="Vector 1" d="M2.4706 8.47336C2.4706 8.47336 11.7353 12.1049 21 12.1049C30.2647 12.1049 39.5294 8.47336 39.5294 8.47336" stroke="#53A5DF" stroke-width="1.5" stroke-linecap="round" stroke-linejoin="round"/>
</g>
<path id="Vector 2" d="M30.3161 26.8333H13.6911C13.6911 26.8333 12.7132 35.4583 21.5147 35.4583C30.3161 35.4583 30.3161 26.8333 30.3161 26.8333Z" fill="white"/>
<path id="Vector" d="M21.5147 15.3488C16.1006 15.3488 11.7353 19.6552 11.7353 24.8976C11.7353 30.1625 16.1223 34.4458 21.5147 34.4458C26.9813 34.4458 31.2941 30.1138 31.2941 24.8976C31.2941 19.668 26.9681 15.3488 21.5147 15.3488ZM21.5147 17.3597C24.4006 17.3597 27.0242 18.9128 28.3617 21.4135C28.7262 22.0943 28.9774 22.8112 29.1137 23.5556C28.6834 23.6704 28.2842 23.8289 27.9335 24.0298C27.9284 24.0327 27.9233 24.0357 27.9181 24.0387C26.9605 24.5764 25.2998 24.5742 24.3491 24.0303C22.7684 23.1252 20.2971 23.1202 18.707 24.0154C18.6981 24.0202 18.6893 24.0251 18.6805 24.03C17.7402 24.5678 16.0753 24.5852 15.0957 24.0298C14.7455 23.8291 14.3469 23.6709 13.9172 23.5561C14.5673 20.0374 17.7267 17.3597 21.5147 17.3597ZM21.5147 32.435C17.5197 32.435 14.2239 29.4568 13.8336 25.6549C13.9386 25.7013 13.996 25.7315 14.0547 25.7651C15.6345 26.669 18.105 26.674 19.6952 25.7801C19.7045 25.7752 19.7138 25.77 19.723 25.7648C20.6774 25.218 22.3523 25.2181 23.3076 25.7651C24.9735 26.7183 27.5067 26.6431 28.9909 25.7556C29.0549 25.7196 29.1244 25.6865 29.196 25.6548C28.813 29.4531 25.5298 32.435 21.5147 32.435Z" fill="#53A5DF"/>
<ellipse id="Ellipse 3" cx="15.647" cy="5.74961" rx="1.95588" ry="1.91667" fill="white"/>
<ellipse id="Ellipse 4" cx="21.5147" cy="5.74961" rx="1.95588" ry="1.91667" fill="white"/>
<ellipse id="Ellipse 5" cx="27.3823" cy="5.74961" rx="1.95588" ry="1.91667" fill="white"/>
</g>
</g>
</g>
</svg>
